<?xml version="1.0" encoding="utf-8" standalone="no"?>
<!DOCTYPE svg PUBLIC "-//W3C//DTD SVG 1.1//EN"
  "http://www.w3.org/Graphics/SVG/1.1/DTD/svg11.dtd">
<svg xmlns:xlink="http://www.w3.org/1999/xlink" width="682.444375pt" height="397.526125pt" viewBox="0 0 682.444375 397.526125" xmlns="http://www.w3.org/2000/svg" version="1.1">
 <metadata>
  <rdf:RDF xmlns:dc="http://purl.org/dc/elements/1.1/" xmlns:cc="http://creativecommons.org/ns#" xmlns:rdf="http://www.w3.org/1999/02/22-rdf-syntax-ns#">
   <cc:Work>
    <dc:type rdf:resource="http://purl.org/dc/dcmitype/StillImage"/>
    <dc:date>2026-09-09T06:09:52.215628</dc:date>
    <dc:format>image/svg+xml</dc:format>
    <dc:creator>
     <cc:Agent>
      <dc:title>Matplotlib v3.11.1, https://matplotlib.org/</dc:title>
     </cc:Agent>
    </dc:creator>
   </cc:Work>
  </rdf:RDF>
 </metadata>
 <defs>
  <style type="text/css">*{stroke-linejoin: round; stroke-linecap: butt}</style>
 </defs>
 <g id="figure_1">
  <g id="patch_1">
   <path d="M 0 397.526125 
L 682.444375 397.526125 
L 682.444375 0 
L 0 0 
z
" style="fill: #ffffff"/>
  </g>
  <g id="axes_1">
   <g id="patch_2">
    <path d="M 47.288281 292.723781 
L 638.243594 292.723781 
L 638.243594 22.318125 
L 47.288281 22.318125 
z
" style="fill: #ffffff"/>
   </g>
   <g id="patch_3">
    <path d="M 74.149886 292.723781 
L 156.100546 292.723781 
L 156.100546 290.895356 
L 74.149886 290.895356 
z
" clip-path="url(#p2f72b72dca)" style="fill: #1f77b4"/>
   </g>
   <g id="patch_4">
    <path d="M 187.970247 292.723781 
L 269.920907 292.723781 
L 269.920907 290.896839 
L 187.970247 290.896839 
z
" clip-path="url(#p2f72b72dca)" style="fill: #1f77b4"/>
   </g>
   <g id="patch_5">
    <path d="M 301.790608 292.723781 
L 383.741267 292.723781 
L 383.741267 290.900793 
L 301.790608 290.900793 
z
" clip-path="url(#p2f72b72dca)" style="fill: #1f77b4"/>
   </g>
   <g id="patch_6">
    <path d="M 415.610968 292.723781 
L 497.561628 292.723781 
L 497.561628 290.907749 
L 415.610968 290.907749 
z
" clip-path="url(#p2f72b72dca)" style="fill: #1f77b4"/>
   </g>
   <g id="patch_7">
    <path d="M 529.431329 292.723781 
L 611.381989 292.723781 
L 611.381989 290.921505 
L 529.431329 290.921505 
z
" clip-path="url(#p2f72b72dca)" style="fill: #1f77b4"/>
   </g>
   <g id="patch_8">
    <path d="M 74.149886 290.895356 
L 156.100546 290.895356 
L 156.100546 290.87439 
L 74.149886 290.87439 
z
" clip-path="url(#p2f72b72dca)" style="fill: #ff7f0e"/>
   </g>
   <g id="patch_9">
    <path d="M 187.970247 290.896839 
L 269.920907 290.896839 
L 269.920907 290.852376 
L 187.970247 290.852376 
z
" clip-path="url(#p2f72b72dca)" style="fill: #ff7f0e"/>
   </g>
   <g id="patch_10">
    <path d="M 301.790608 290.900793 
L 383.741267 290.900793 
L 383.741267 290.767574 
L 301.790608 290.767574 
z
" clip-path="url(#p2f72b72dca)" style="fill: #ff7f0e"/>
   </g>
   <g id="patch_11">
    <path d="M 415.610968 290.907749 
L 497.561628 290.907749 
L 497.561628 290.459398 
L 415.610968 290.459398 
z
" clip-path="url(#p2f72b72dca)" style="fill: #ff7f0e"/>
   </g>
   <g id="patch_12">
    <path d="M 529.431329 290.921505 
L 611.381989 290.921505 
L 611.381989 289.286723 
L 529.431329 289.286723 
z
" clip-path="url(#p2f72b72dca)" style="fill: #ff7f0e"/>
   </g>
   <g id="patch_13">
    <path d="M 74.149886 290.87439 
L 156.100546 290.87439 
L 156.100546 271.134589 
L 74.149886 271.134589 
z
" clip-path="url(#p2f72b72dca)" style="fill: #2ca02c"/>
   </g>
   <g id="patch_14">
    <path d="M 187.970247 290.852376 
L 269.920907 290.852376 
L 269.920907 271.128598 
L 187.970247 271.128598 
z
" clip-path="url(#p2f72b72dca)" style="fill: #2ca02c"/>
   </g>
   <g id="patch_15">
    <path d="M 301.790608 290.767574 
L 383.741267 290.767574 
L 383.741267 271.084533 
L 301.790608 271.084533 
z
" clip-path="url(#p2f72b72dca)" style="fill: #2ca02c"/>
   </g>
   <g id="patch_16">
    <path d="M 415.610968 290.459398 
L 497.561628 290.459398 
L 497.561628 270.853117 
L 415.610968 270.853117 
z
" clip-path="url(#p2f72b72dca)" style="fill: #2ca02c"/>
   </g>
   <g id="patch_17">
    <path d="M 529.431329 289.286723 
L 611.381989 289.286723 
L 611.381989 268.186933 
L 529.431329 268.186933 
z
" clip-path="url(#p2f72b72dca)" style="fill: #2ca02c"/>
   </g>
   <g id="patch_18">
    <path d="M 74.149886 271.134589 
L 156.100546 271.134589 
L 156.100546 253.642654 
L 74.149886 253.642654 
z
" clip-path="url(#p2f72b72dca)" style="fill: #d62728"/>
   </g>
   <g id="patch_19">
    <path d="M 187.970247 271.128598 
L 269.920907 271.128598 
L 269.920907 238.080861 
L 187.970247 238.080861 
z
" clip-path="url(#p2f72b72dca)" style="fill: #d62728"/>
   </g>
   <g id="patch_20">
    <path d="M 301.790608 271.084533 
L 383.741267 271.084533 
L 383.741267 211.21279 
L 301.790608 211.21279 
z
" clip-path="url(#p2f72b72dca)" style="fill: #d62728"/>
   </g>
   <g id="patch_21">
    <path d="M 415.610968 270.853117 
L 497.561628 270.853117 
L 497.561628 157.541944 
L 415.610968 157.541944 
z
" clip-path="url(#p2f72b72dca)" style="fill: #d62728"/>
   </g>
   <g id="patch_22">
    <path d="M 529.431329 268.186933 
L 611.381989 268.186933 
L 611.381989 43.285176 
L 529.431329 43.285176 
z
" clip-path="url(#p2f72b72dca)" style="fill: #d62728"/>
   </g>
   <g id="patch_23">
    <path d="M 74.149886 253.642654 
L 156.100546 253.642654 
L 156.100546 253.06616 
L 74.149886 253.06616 
z
" clip-path="url(#p2f72b72dca)" style="fill: #9467bd"/>
   </g>
   <g id="patch_24">
    <path d="M 187.970247 238.080861 
L 269.920907 238.080861 
L 269.920907 236.952057 
L 187.970247 236.952057 
z
" clip-path="url(#p2f72b72dca)" style="fill: #9467bd"/>
   </g>
   <g id="patch_25">
    <path d="M 301.790608 211.21279 
L 383.741267 211.21279 
L 383.741267 209.080795 
L 301.790608 209.080795 
z
" clip-path="url(#p2f72b72dca)" style="fill: #9467bd"/>
   </g>
   <g id="patch_26">
    <path d="M 415.610968 157.541944 
L 497.561628 157.541944 
L 497.561628 153.417272 
L 415.610968 153.417272 
z
" clip-path="url(#p2f72b72dca)" style="fill: #9467bd"/>
   </g>
   <g id="patch_27">
    <path d="M 529.431329 43.285176 
L 611.381989 43.285176 
L 611.381989 35.194585 
L 529.431329 35.194585 
z
" clip-path="url(#p2f72b72dca)" style="fill: #9467bd"/>
   </g>
   <g id="matplotlib.axis_1">
    <g id="xtick_1">
     <g id="line2d_1">
      <defs>
       <path id="m5598f0654e" d="M 0 0 
L 0 3.5 
" style="stroke: #000000; stroke-width: 0.8"/>
      </defs>
      <g>
       <use xlink:href="#m5598f0654e" x="115.125216" y="292.723781" style="stroke: #000000; stroke-width: 0.8"/>
      </g>
     </g>
     <g id="text_1">
      <!-- 1K -->
      <g transform="translate(108.66506 307.321437) scale(0.1 -0.1)">
       <defs>
        <path id="DejaVuSans-14" d="M 794 531 
L 1825 531 
L 1825 4091 
L 703 3866 
L 703 4441 
L 1819 4666 
L 2450 4666 
L 2450 531 
L 3481 531 
L 3481 0 
L 794 0 
L 794 531 
z
" transform="scale(0.015625)"/>
        <path id="DejaVuSans-2e" d="M 628 4666 
L 1259 4666 
L 1259 2694 
L 3353 4666 
L 4166 4666 
L 1850 2491 
L 4331 0 
L 3500 0 
L 1259 2247 
L 1259 0 
L 628 0 
L 628 4666 
z
" transform="scale(0.015625)"/>
       </defs>
       <use xlink:href="#DejaVuSans-14"/>
       <use xlink:href="#DejaVuSans-2e" transform="translate(63.625 0)"/>
      </g>
     </g>
    </g>
    <g id="xtick_2">
     <g id="line2d_2">
      <g>
       <use xlink:href="#m5598f0654e" x="228.945577" y="292.723781" style="stroke: #000000; stroke-width: 0.8"/>
      </g>
     </g>
     <g id="text_2">
      <!-- 2K -->
      <g transform="translate(222.485421 307.321437) scale(0.1 -0.1)">
       <defs>
        <path id="DejaVuSans-15" d="M 1228 531 
L 3431 531 
L 3431 0 
L 469 0 
L 469 531 
Q 828 903 1448 1529 
Q 2069 2156 2228 2338 
Q 2531 2678 2651 2914 
Q 2772 3150 2772 3378 
Q 2772 3750 2511 3984 
Q 2250 4219 1831 4219 
Q 1534 4219 1204 4116 
Q 875 4013 500 3803 
L 500 4441 
Q 881 4594 1212 4672 
Q 1544 4750 1819 4750 
Q 2544 4750 2975 4387 
Q 3406 4025 3406 3419 
Q 3406 3131 3298 2873 
Q 3191 2616 2906 2266 
Q 2828 2175 2409 1742 
Q 1991 1309 1228 531 
z
" transform="scale(0.015625)"/>
       </defs>
       <use xlink:href="#DejaVuSans-15"/>
       <use xlink:href="#DejaVuSans-2e" transform="translate(63.625 0)"/>
      </g>
     </g>
    </g>
    <g id="xtick_3">
     <g id="line2d_3">
      <g>
       <use xlink:href="#m5598f0654e" x="342.765937" y="292.723781" style="stroke: #000000; stroke-width: 0.8"/>
      </g>
     </g>
     <g id="text_3">
      <!-- 4K -->
      <g transform="translate(336.305781 307.321437) scale(0.1 -0.1)">
       <defs>
        <path id="DejaVuSans-17" d="M 2419 4116 
L 825 1625 
L 2419 1625 
L 2419 4116 
z
M 2253 4666 
L 3047 4666 
L 3047 1625 
L 3713 1625 
L 3713 1100 
L 3047 1100 
L 3047 0 
L 2419 0 
L 2419 1100 
L 313 1100 
L 313 1709 
L 2253 4666 
z
" transform="scale(0.015625)"/>
       </defs>
       <use xlink:href="#DejaVuSans-17"/>
       <use xlink:href="#DejaVuSans-2e" transform="translate(63.625 0)"/>
      </g>
     </g>
    </g>
    <g id="xtick_4">
     <g id="line2d_4">
      <g>
       <use xlink:href="#m5598f0654e" x="456.586298" y="292.723781" style="stroke: #000000; stroke-width: 0.8"/>
      </g>
     </g>
     <g id="text_4">
      <!-- 8K -->
      <g transform="translate(450.126142 307.321437) scale(0.1 -0.1)">
       <defs>
        <path id="DejaVuSans-1b" d="M 2034 2216 
Q 1584 2216 1326 1975 
Q 1069 1734 1069 1313 
Q 1069 891 1326 650 
Q 1584 409 2034 409 
Q 2484 409 2743 651 
Q 3003 894 3003 1313 
Q 3003 1734 2745 1975 
Q 2488 2216 2034 2216 
z
M 1403 2484 
Q 997 2584 770 2862 
Q 544 3141 544 3541 
Q 544 4100 942 4425 
Q 1341 4750 2034 4750 
Q 2731 4750 3128 4425 
Q 3525 4100 3525 3541 
Q 3525 3141 3298 2862 
Q 3072 2584 2669 2484 
Q 3125 2378 3379 2068 
Q 3634 1759 3634 1313 
Q 3634 634 3220 271 
Q 2806 -91 2034 -91 
Q 1263 -91 848 271 
Q 434 634 434 1313 
Q 434 1759 690 2068 
Q 947 2378 1403 2484 
z
M 1172 3481 
Q 1172 3119 1398 2916 
Q 1625 2713 2034 2713 
Q 2441 2713 2670 2916 
Q 2900 3119 2900 3481 
Q 2900 3844 2670 4047 
Q 2441 4250 2034 4250 
Q 1625 4250 1398 4047 
Q 1172 3844 1172 3481 
z
" transform="scale(0.015625)"/>
       </defs>
       <use xlink:href="#DejaVuSans-1b"/>
       <use xlink:href="#DejaVuSans-2e" transform="translate(63.625 0)"/>
      </g>
     </g>
    </g>
    <g id="xtick_5">
     <g id="line2d_5">
      <g>
       <use xlink:href="#m5598f0654e" x="570.406659" y="292.723781" style="stroke: #000000; stroke-width: 0.8"/>
      </g>
     </g>
     <g id="text_5">
      <!-- 16K -->
      <g transform="translate(560.765253 307.321437) scale(0.1 -0.1)">
       <defs>
        <path id="DejaVuSans-19" d="M 2113 2584 
Q 1688 2584 1439 2293 
Q 1191 2003 1191 1497 
Q 1191 994 1439 701 
Q 1688 409 2113 409 
Q 2538 409 2786 701 
Q 3034 994 3034 1497 
Q 3034 2003 2786 2293 
Q 2538 2584 2113 2584 
z
M 3366 4563 
L 3366 3988 
Q 3128 4100 2886 4159 
Q 2644 4219 2406 4219 
Q 1781 4219 1451 3797 
Q 1122 3375 1075 2522 
Q 1259 2794 1537 2939 
Q 1816 3084 2150 3084 
Q 2853 3084 3261 2657 
Q 3669 2231 3669 1497 
Q 3669 778 3244 343 
Q 2819 -91 2113 -91 
Q 1303 -91 875 529 
Q 447 1150 447 2328 
Q 447 3434 972 4092 
Q 1497 4750 2381 4750 
Q 2619 4750 2861 4703 
Q 3103 4656 3366 4563 
z
" transform="scale(0.015625)"/>
       </defs>
       <use xlink:href="#DejaVuSans-14"/>
       <use xlink:href="#DejaVuSans-19" transform="translate(63.625 0)"/>
       <use xlink:href="#DejaVuSans-2e" transform="translate(127.25 0)"/>
      </g>
     </g>
    </g>
    <g id="text_6">
     <!-- Fresh chunk size -->
     <g transform="translate(301.435469 321.322219) scale(0.1 -0.1)">
      <defs>
       <path id="DejaVuSans-29" d="M 628 4666 
L 3309 4666 
L 3309 4134 
L 1259 4134 
L 1259 2759 
L 3109 2759 
L 3109 2228 
L 1259 2228 
L 1259 0 
L 628 0 
L 628 4666 
z
" transform="scale(0.015625)"/>
       <path id="DejaVuSans-55" d="M 2631 2963 
Q 2534 3019 2420 3045 
Q 2306 3072 2169 3072 
Q 1681 3072 1420 2755 
Q 1159 2438 1159 1844 
L 1159 0 
L 581 0 
L 581 3500 
L 1159 3500 
L 1159 2956 
Q 1341 3275 1631 3429 
Q 1922 3584 2338 3584 
Q 2397 3584 2469 3576 
Q 2541 3569 2628 3553 
L 2631 2963 
z
" transform="scale(0.015625)"/>
       <path id="DejaVuSans-48" d="M 3597 1894 
L 3597 1613 
L 953 1613 
Q 991 1019 1311 708 
Q 1631 397 2203 397 
Q 2534 397 2845 478 
Q 3156 559 3463 722 
L 3463 178 
Q 3153 47 2828 -22 
Q 2503 -91 2169 -91 
Q 1331 -91 842 396 
Q 353 884 353 1716 
Q 353 2575 817 3079 
Q 1281 3584 2069 3584 
Q 2775 3584 3186 3129 
Q 3597 2675 3597 1894 
z
M 3022 2063 
Q 3016 2534 2758 2815 
Q 2500 3097 2075 3097 
Q 1594 3097 1305 2825 
Q 1016 2553 972 2059 
L 3022 2063 
z
" transform="scale(0.015625)"/>
       <path id="DejaVuSans-56" d="M 2834 3397 
L 2834 2853 
Q 2591 2978 2328 3040 
Q 2066 3103 1784 3103 
Q 1356 3103 1142 2972 
Q 928 2841 928 2578 
Q 928 2378 1081 2264 
Q 1234 2150 1697 2047 
L 1894 2003 
Q 2506 1872 2764 1633 
Q 3022 1394 3022 966 
Q 3022 478 2636 193 
Q 2250 -91 1575 -91 
Q 1294 -91 989 -36 
Q 684 19 347 128 
L 347 722 
Q 666 556 975 473 
Q 1284 391 1588 391 
Q 1994 391 2212 530 
Q 2431 669 2431 922 
Q 2431 1156 2273 1281 
Q 2116 1406 1581 1522 
L 1381 1569 
Q 847 1681 609 1914 
Q 372 2147 372 2553 
Q 372 3047 722 3315 
Q 1072 3584 1716 3584 
Q 2034 3584 2315 3537 
Q 2597 3491 2834 3397 
z
" transform="scale(0.015625)"/>
       <path id="DejaVuSans-4b" d="M 3513 2113 
L 3513 0 
L 2938 0 
L 2938 2094 
Q 2938 2591 2744 2837 
Q 2550 3084 2163 3084 
Q 1697 3084 1428 2787 
Q 1159 2491 1159 1978 
L 1159 0 
L 581 0 
L 581 4863 
L 1159 4863 
L 1159 2956 
Q 1366 3272 1645 3428 
Q 1925 3584 2291 3584 
Q 2894 3584 3203 3211 
Q 3513 2838 3513 2113 
z
" transform="scale(0.015625)"/>
       <path id="DejaVuSans-3" transform="scale(0.015625)"/>
       <path id="DejaVuSans-46" d="M 3122 3366 
L 3122 2828 
Q 2878 2963 2633 3030 
Q 2388 3097 2138 3097 
Q 1578 3097 1268 2742 
Q 959 2388 959 1747 
Q 959 1106 1268 751 
Q 1578 397 2138 397 
Q 2388 397 2633 464 
Q 2878 531 3122 666 
L 3122 134 
Q 2881 22 2623 -34 
Q 2366 -91 2075 -91 
Q 1284 -91 818 406 
Q 353 903 353 1747 
Q 353 2603 823 3093 
Q 1294 3584 2113 3584 
Q 2378 3584 2631 3529 
Q 2884 3475 3122 3366 
z
" transform="scale(0.015625)"/>
       <path id="DejaVuSans-58" d="M 544 1381 
L 544 3500 
L 1119 3500 
L 1119 1403 
Q 1119 906 1312 657 
Q 1506 409 1894 409 
Q 2359 409 2629 706 
Q 2900 1003 2900 1516 
L 2900 3500 
L 3475 3500 
L 3475 0 
L 2900 0 
L 2900 538 
Q 2691 219 2414 64 
Q 2138 -91 1772 -91 
Q 1169 -91 856 284 
Q 544 659 544 1381 
z
M 1991 3584 
L 1991 3584 
z
" transform="scale(0.015625)"/>
       <path id="DejaVuSans-51" d="M 3513 2113 
L 3513 0 
L 2938 0 
L 2938 2094 
Q 2938 2591 2744 2837 
Q 2550 3084 2163 3084 
Q 1697 3084 1428 2787 
Q 1159 2491 1159 1978 
L 1159 0 
L 581 0 
L 581 3500 
L 1159 3500 
L 1159 2956 
Q 1366 3272 1645 3428 
Q 1925 3584 2291 3584 
Q 2894 3584 3203 3211 
Q 3513 2838 3513 2113 
z
" transform="scale(0.015625)"/>
       <path id="DejaVuSans-4e" d="M 581 4863 
L 1159 4863 
L 1159 1991 
L 2875 3500 
L 3609 3500 
L 1753 1863 
L 3688 0 
L 2938 0 
L 1159 1709 
L 1159 0 
L 581 0 
L 581 4863 
z
" transform="scale(0.015625)"/>
       <path id="DejaVuSans-4c" d="M 603 3500 
L 1178 3500 
L 1178 0 
L 603 0 
L 603 3500 
z
M 603 4863 
L 1178 4863 
L 1178 4134 
L 603 4134 
L 603 4863 
z
" transform="scale(0.015625)"/>
       <path id="DejaVuSans-5d" d="M 353 3500 
L 3084 3500 
L 3084 2975 
L 922 459 
L 3084 459 
L 3084 0 
L 275 0 
L 275 525 
L 2438 3041 
L 353 3041 
L 353 3500 
z
" transform="scale(0.015625)"/>
      </defs>
      <use xlink:href="#DejaVuSans-29"/>
      <use xlink:href="#DejaVuSans-55" transform="translate(50.234375 0)"/>
      <use xlink:href="#DejaVuSans-48" transform="translate(89.140625 0)"/>
      <use xlink:href="#DejaVuSans-56" transform="translate(150.671875 0)"/>
      <use xlink:href="#DejaVuSans-4b" transform="translate(202.765625 0)"/>
      <use xlink:href="#DejaVuSans-3" transform="translate(266.140625 0)"/>
      <use xlink:href="#DejaVuSans-46" transform="translate(297.921875 0)"/>
      <use xlink:href="#DejaVuSans-4b" transform="translate(352.90625 0)"/>
      <use xlink:href="#DejaVuSans-58" transform="translate(416.28125 0)"/>
      <use xlink:href="#DejaVuSans-51" transform="translate(479.65625 0)"/>
      <use xlink:href="#DejaVuSans-4e" transform="translate(543.03125 0)"/>
      <use xlink:href="#DejaVuSans-3" transform="translate(600.9375 0)"/>
      <use xlink:href="#DejaVuSans-56" transform="translate(632.71875 0)"/>
      <use xlink:href="#DejaVuSans-4c" transform="translate(684.8125 0)"/>
      <use xlink:href="#DejaVuSans-5d" transform="translate(712.59375 0)"/>
      <use xlink:href="#DejaVuSans-48" transform="translate(765.078125 0)"/>
     </g>
    </g>
   </g>
   <g id="matplotlib.axis_2">
    <g id="ytick_1">
     <g id="line2d_6">
      <path d="M 47.288281 292.723781 
L 638.243594 292.723781 
" clip-path="url(#p2f72b72dca)" style="fill: none; stroke: #b0b0b0; stroke-opacity: 0.22; stroke-width: 0.8; stroke-linecap: square"/>
     </g>
     <g id="line2d_7">
      <defs>
       <path id="mdb2ab0ea30" d="M 0 0 
L -3.5 0 
" style="stroke: #000000; stroke-width: 0.8"/>
      </defs>
      <g>
       <use xlink:href="#mdb2ab0ea30" x="47.288281" y="292.723781" style="stroke: #000000; stroke-width: 0.8"/>
      </g>
     </g>
     <g id="text_7">
      <!-- 0 -->
      <g transform="translate(33.925781 296.522609) scale(0.1 -0.1)">
       <defs>
        <path id="DejaVuSans-13" d="M 2034 4250 
Q 1547 4250 1301 3770 
Q 1056 3291 1056 2328 
Q 1056 1369 1301 889 
Q 1547 409 2034 409 
Q 2525 409 2770 889 
Q 3016 1369 3016 2328 
Q 3016 3291 2770 3770 
Q 2525 4250 2034 4250 
z
M 2034 4750 
Q 2819 4750 3233 4129 
Q 3647 3509 3647 2328 
Q 3647 1150 3233 529 
Q 2819 -91 2034 -91 
Q 1250 -91 836 529 
Q 422 1150 422 2328 
Q 422 3509 836 4129 
Q 1250 4750 2034 4750 
z
" transform="scale(0.015625)"/>
       </defs>
       <use xlink:href="#DejaVuSans-13"/>
      </g>
     </g>
    </g>
    <g id="ytick_2">
     <g id="line2d_8">
      <path d="M 47.288281 255.04877 
L 638.243594 255.04877 
" clip-path="url(#p2f72b72dca)" style="fill: none; stroke: #b0b0b0; stroke-opacity: 0.22; stroke-width: 0.8; stroke-linecap: square"/>
     </g>
     <g id="line2d_9">
      <g>
       <use xlink:href="#mdb2ab0ea30" x="47.288281" y="255.04877" style="stroke: #000000; stroke-width: 0.8"/>
      </g>
     </g>
     <g id="text_8">
      <!-- 100 -->
      <g transform="translate(21.200781 258.847598) scale(0.1 -0.1)">
       <use xlink:href="#DejaVuSans-14"/>
       <use xlink:href="#DejaVuSans-13" transform="translate(63.625 0)"/>
       <use xlink:href="#DejaVuSans-13" transform="translate(127.25 0)"/>
      </g>
     </g>
    </g>
    <g id="ytick_3">
     <g id="line2d_10">
      <path d="M 47.288281 217.373758 
L 638.243594 217.373758 
" clip-path="url(#p2f72b72dca)" style="fill: none; stroke: #b0b0b0; stroke-opacity: 0.22; stroke-width: 0.8; stroke-linecap: square"/>
     </g>
     <g id="line2d_11">
      <g>
       <use xlink:href="#mdb2ab0ea30" x="47.288281" y="217.373758" style="stroke: #000000; stroke-width: 0.8"/>
      </g>
     </g>
     <g id="text_9">
      <!-- 200 -->
      <g transform="translate(21.200781 221.172586) scale(0.1 -0.1)">
       <use xlink:href="#DejaVuSans-15"/>
       <use xlink:href="#DejaVuSans-13" transform="translate(63.625 0)"/>
       <use xlink:href="#DejaVuSans-13" transform="translate(127.25 0)"/>
      </g>
     </g>
    </g>
    <g id="ytick_4">
     <g id="line2d_12">
      <path d="M 47.288281 179.698746 
L 638.243594 179.698746 
" clip-path="url(#p2f72b72dca)" style="fill: none; stroke: #b0b0b0; stroke-opacity: 0.22; stroke-width: 0.8; stroke-linecap: square"/>
     </g>
     <g id="line2d_13">
      <g>
       <use xlink:href="#mdb2ab0ea30" x="47.288281" y="179.698746" style="stroke: #000000; stroke-width: 0.8"/>
      </g>
     </g>
     <g id="text_10">
      <!-- 300 -->
      <g transform="translate(21.200781 183.497575) scale(0.1 -0.1)">
       <defs>
        <path id="DejaVuSans-16" d="M 2597 2516 
Q 3050 2419 3304 2112 
Q 3559 1806 3559 1356 
Q 3559 666 3084 287 
Q 2609 -91 1734 -91 
Q 1441 -91 1130 -33 
Q 819 25 488 141 
L 488 750 
Q 750 597 1062 519 
Q 1375 441 1716 441 
Q 2309 441 2620 675 
Q 2931 909 2931 1356 
Q 2931 1769 2642 2001 
Q 2353 2234 1838 2234 
L 1294 2234 
L 1294 2753 
L 1863 2753 
Q 2328 2753 2575 2939 
Q 2822 3125 2822 3475 
Q 2822 3834 2567 4026 
Q 2313 4219 1838 4219 
Q 1578 4219 1281 4162 
Q 984 4106 628 3988 
L 628 4550 
Q 988 4650 1302 4700 
Q 1616 4750 1894 4750 
Q 2613 4750 3031 4423 
Q 3450 4097 3450 3541 
Q 3450 3153 3228 2886 
Q 3006 2619 2597 2516 
z
" transform="scale(0.015625)"/>
       </defs>
       <use xlink:href="#DejaVuSans-16"/>
       <use xlink:href="#DejaVuSans-13" transform="translate(63.625 0)"/>
       <use xlink:href="#DejaVuSans-13" transform="translate(127.25 0)"/>
      </g>
     </g>
    </g>
    <g id="ytick_5">
     <g id="line2d_14">
      <path d="M 47.288281 142.023735 
L 638.243594 142.023735 
" clip-path="url(#p2f72b72dca)" style="fill: none; stroke: #b0b0b0; stroke-opacity: 0.22; stroke-width: 0.8; stroke-linecap: square"/>
     </g>
     <g id="line2d_15">
      <g>
       <use xlink:href="#mdb2ab0ea30" x="47.288281" y="142.023735" style="stroke: #000000; stroke-width: 0.8"/>
      </g>
     </g>
     <g id="text_11">
      <!-- 400 -->
      <g transform="translate(21.200781 145.822563) scale(0.1 -0.1)">
       <use xlink:href="#DejaVuSans-17"/>
       <use xlink:href="#DejaVuSans-13" transform="translate(63.625 0)"/>
       <use xlink:href="#DejaVuSans-13" transform="translate(127.25 0)"/>
      </g>
     </g>
    </g>
    <g id="ytick_6">
     <g id="line2d_16">
      <path d="M 47.288281 104.348723 
L 638.243594 104.348723 
" clip-path="url(#p2f72b72dca)" style="fill: none; stroke: #b0b0b0; stroke-opacity: 0.22; stroke-width: 0.8; stroke-linecap: square"/>
     </g>
     <g id="line2d_17">
      <g>
       <use xlink:href="#mdb2ab0ea30" x="47.288281" y="104.348723" style="stroke: #000000; stroke-width: 0.8"/>
      </g>
     </g>
     <g id="text_12">
      <!-- 500 -->
      <g transform="translate(21.200781 108.147551) scale(0.1 -0.1)">
       <defs>
        <path id="DejaVuSans-18" d="M 691 4666 
L 3169 4666 
L 3169 4134 
L 1269 4134 
L 1269 2991 
Q 1406 3038 1543 3061 
Q 1681 3084 1819 3084 
Q 2600 3084 3056 2656 
Q 3513 2228 3513 1497 
Q 3513 744 3044 326 
Q 2575 -91 1722 -91 
Q 1428 -91 1123 -41 
Q 819 9 494 109 
L 494 744 
Q 775 591 1075 516 
Q 1375 441 1709 441 
Q 2250 441 2565 725 
Q 2881 1009 2881 1497 
Q 2881 1984 2565 2268 
Q 2250 2553 1709 2553 
Q 1456 2553 1204 2497 
Q 953 2441 691 2322 
L 691 4666 
z
" transform="scale(0.015625)"/>
       </defs>
       <use xlink:href="#DejaVuSans-18"/>
       <use xlink:href="#DejaVuSans-13" transform="translate(63.625 0)"/>
       <use xlink:href="#DejaVuSans-13" transform="translate(127.25 0)"/>
      </g>
     </g>
    </g>
    <g id="ytick_7">
     <g id="line2d_18">
      <path d="M 47.288281 66.673712 
L 638.243594 66.673712 
" clip-path="url(#p2f72b72dca)" style="fill: none; stroke: #b0b0b0; stroke-opacity: 0.22; stroke-width: 0.8; stroke-linecap: square"/>
     </g>
     <g id="line2d_19">
      <g>
       <use xlink:href="#mdb2ab0ea30" x="47.288281" y="66.673712" style="stroke: #000000; stroke-width: 0.8"/>
      </g>
     </g>
     <g id="text_13">
      <!-- 600 -->
      <g transform="translate(21.200781 70.47254) scale(0.1 -0.1)">
       <use xlink:href="#DejaVuSans-19"/>
       <use xlink:href="#DejaVuSans-13" transform="translate(63.625 0)"/>
       <use xlink:href="#DejaVuSans-13" transform="translate(127.25 0)"/>
      </g>
     </g>
    </g>
    <g id="ytick_8">
     <g id="line2d_20">
      <path d="M 47.288281 28.9987 
L 638.243594 28.9987 
" clip-path="url(#p2f72b72dca)" style="fill: none; stroke: #b0b0b0; stroke-opacity: 0.22; stroke-width: 0.8; stroke-linecap: square"/>
     </g>
     <g id="line2d_21">
      <g>
       <use xlink:href="#mdb2ab0ea30" x="47.288281" y="28.9987" style="stroke: #000000; stroke-width: 0.8"/>
      </g>
     </g>
     <g id="text_14">
      <!-- 700 -->
      <g transform="translate(21.200781 32.797528) scale(0.1 -0.1)">
       <defs>
        <path id="DejaVuSans-1a" d="M 525 4666 
L 3525 4666 
L 3525 4397 
L 1831 0 
L 1172 0 
L 2766 4134 
L 525 4134 
L 525 4666 
z
" transform="scale(0.015625)"/>
       </defs>
       <use xlink:href="#DejaVuSans-1a"/>
       <use xlink:href="#DejaVuSans-13" transform="translate(63.625 0)"/>
       <use xlink:href="#DejaVuSans-13" transform="translate(127.25 0)"/>
      </g>
     </g>
    </g>
    <g id="text_15">
     <!-- Kernel latency (ms) -->
     <g transform="translate(14.798438 206.151422) rotate(-90) scale(0.1 -0.1)">
      <defs>
       <path id="DejaVuSans-4f" d="M 603 4863 
L 1178 4863 
L 1178 0 
L 603 0 
L 603 4863 
z
" transform="scale(0.015625)"/>
       <path id="DejaVuSans-44" d="M 2194 1759 
Q 1497 1759 1228 1600 
Q 959 1441 959 1056 
Q 959 750 1161 570 
Q 1363 391 1709 391 
Q 2188 391 2477 730 
Q 2766 1069 2766 1631 
L 2766 1759 
L 2194 1759 
z
M 3341 1997 
L 3341 0 
L 2766 0 
L 2766 531 
Q 2569 213 2275 61 
Q 1981 -91 1556 -91 
Q 1019 -91 701 211 
Q 384 513 384 1019 
Q 384 1609 779 1909 
Q 1175 2209 1959 2209 
L 2766 2209 
L 2766 2266 
Q 2766 2663 2505 2880 
Q 2244 3097 1772 3097 
Q 1472 3097 1187 3025 
Q 903 2953 641 2809 
L 641 3341 
Q 956 3463 1253 3523 
Q 1550 3584 1831 3584 
Q 2591 3584 2966 3190 
Q 3341 2797 3341 1997 
z
" transform="scale(0.015625)"/>
       <path id="DejaVuSans-57" d="M 1172 4494 
L 1172 3500 
L 2356 3500 
L 2356 3053 
L 1172 3053 
L 1172 1153 
Q 1172 725 1289 603 
Q 1406 481 1766 481 
L 2356 481 
L 2356 0 
L 1766 0 
Q 1100 0 847 248 
Q 594 497 594 1153 
L 594 3053 
L 172 3053 
L 172 3500 
L 594 3500 
L 594 4494 
L 1172 4494 
z
" transform="scale(0.015625)"/>
       <path id="DejaVuSans-5c" d="M 2059 -325 
Q 1816 -950 1584 -1140 
Q 1353 -1331 966 -1331 
L 506 -1331 
L 506 -850 
L 844 -850 
Q 1081 -850 1212 -737 
Q 1344 -625 1503 -206 
L 1606 56 
L 191 3500 
L 800 3500 
L 1894 763 
L 2988 3500 
L 3597 3500 
L 2059 -325 
z
" transform="scale(0.015625)"/>
       <path id="DejaVuSans-b" d="M 1984 4856 
Q 1566 4138 1362 3434 
Q 1159 2731 1159 2009 
Q 1159 1288 1364 580 
Q 1569 -128 1984 -844 
L 1484 -844 
Q 1016 -109 783 600 
Q 550 1309 550 2009 
Q 550 2706 781 3412 
Q 1013 4119 1484 4856 
L 1984 4856 
z
" transform="scale(0.015625)"/>
       <path id="DejaVuSans-50" d="M 3328 2828 
Q 3544 3216 3844 3400 
Q 4144 3584 4550 3584 
Q 5097 3584 5394 3201 
Q 5691 2819 5691 2113 
L 5691 0 
L 5113 0 
L 5113 2094 
Q 5113 2597 4934 2840 
Q 4756 3084 4391 3084 
Q 3944 3084 3684 2787 
Q 3425 2491 3425 1978 
L 3425 0 
L 2847 0 
L 2847 2094 
Q 2847 2600 2669 2842 
Q 2491 3084 2119 3084 
Q 1678 3084 1418 2786 
Q 1159 2488 1159 1978 
L 1159 0 
L 581 0 
L 581 3500 
L 1159 3500 
L 1159 2956 
Q 1356 3278 1631 3431 
Q 1906 3584 2284 3584 
Q 2666 3584 2933 3390 
Q 3200 3197 3328 2828 
z
" transform="scale(0.015625)"/>
       <path id="DejaVuSans-c" d="M 513 4856 
L 1013 4856 
Q 1481 4119 1714 3412 
Q 1947 2706 1947 2009 
Q 1947 1309 1714 600 
Q 1481 -109 1013 -844 
L 513 -844 
Q 928 -128 1133 580 
Q 1338 1288 1338 2009 
Q 1338 2731 1133 3434 
Q 928 4138 513 4856 
z
" transform="scale(0.015625)"/>
      </defs>
      <use xlink:href="#DejaVuSans-2e"/>
      <use xlink:href="#DejaVuSans-48" transform="translate(60.59375 0)"/>
      <use xlink:href="#DejaVuSans-55" transform="translate(122.125 0)"/>
      <use xlink:href="#DejaVuSans-51" transform="translate(161.484375 0)"/>
      <use xlink:href="#DejaVuSans-48" transform="translate(224.859375 0)"/>
      <use xlink:href="#DejaVuSans-4f" transform="translate(286.390625 0)"/>
      <use xlink:href="#DejaVuSans-3" transform="translate(314.171875 0)"/>
      <use xlink:href="#DejaVuSans-4f" transform="translate(345.953125 0)"/>
      <use xlink:href="#DejaVuSans-44" transform="translate(373.734375 0)"/>
      <use xlink:href="#DejaVuSans-57" transform="translate(435.015625 0)"/>
      <use xlink:href="#DejaVuSans-48" transform="translate(474.21875 0)"/>
      <use xlink:href="#DejaVuSans-51" transform="translate(535.75 0)"/>
      <use xlink:href="#DejaVuSans-46" transform="translate(599.125 0)"/>
      <use xlink:href="#DejaVuSans-5c" transform="translate(654.109375 0)"/>
      <use xlink:href="#DejaVuSans-3" transform="translate(713.296875 0)"/>
      <use xlink:href="#DejaVuSans-b" transform="translate(745.078125 0)"/>
      <use xlink:href="#DejaVuSans-50" transform="translate(784.09375 0)"/>
      <use xlink:href="#DejaVuSans-56" transform="translate(881.5 0)"/>
      <use xlink:href="#DejaVuSans-c" transform="translate(933.59375 0)"/>
     </g>
    </g>
   </g>
   <g id="patch_28">
    <path d="M 47.288281 292.723781 
L 47.288281 22.318125 
" style="fill: none; stroke: #000000; stroke-width: 0.8; stroke-linejoin: miter; stroke-linecap: square"/>
   </g>
   <g id="patch_29">
    <path d="M 638.243594 292.723781 
L 638.243594 22.318125 
" style="fill: none; stroke: #000000; stroke-width: 0.8; stroke-linejoin: miter; stroke-linecap: square"/>
   </g>
   <g id="patch_30">
    <path d="M 47.288281 292.723781 
L 638.243594 292.723781 
" style="fill: none; stroke: #000000; stroke-width: 0.8; stroke-linejoin: miter; stroke-linecap: square"/>
   </g>
   <g id="patch_31">
    <path d="M 47.288281 22.318125 
L 638.243594 22.318125 
" style="fill: none; stroke: #000000; stroke-width: 0.8; stroke-linejoin: miter; stroke-linecap: square"/>
   </g>
   <g id="text_16">
    <!-- MLA cached-prefix kernel pipeline · 1M context · 128K split · one B300 -->
    <g transform="translate(131.859375 16.318125) scale(0.12 -0.12)">
     <defs>
      <path id="DejaVuSans-30" d="M 628 4666 
L 1569 4666 
L 2759 1491 
L 3956 4666 
L 4897 4666 
L 4897 0 
L 4281 0 
L 4281 4097 
L 3078 897 
L 2444 897 
L 1241 4097 
L 1241 0 
L 628 0 
L 628 4666 
z
" transform="scale(0.015625)"/>
      <path id="DejaVuSans-2f" d="M 628 4666 
L 1259 4666 
L 1259 531 
L 3531 531 
L 3531 0 
L 628 0 
L 628 4666 
z
" transform="scale(0.015625)"/>
      <path id="DejaVuSans-24" d="M 2188 4044 
L 1331 1722 
L 3047 1722 
L 2188 4044 
z
M 1831 4666 
L 2547 4666 
L 4325 0 
L 3669 0 
L 3244 1197 
L 1141 1197 
L 716 0 
L 50 0 
L 1831 4666 
z
" transform="scale(0.015625)"/>
      <path id="DejaVuSans-47" d="M 2906 2969 
L 2906 4863 
L 3481 4863 
L 3481 0 
L 2906 0 
L 2906 525 
Q 2725 213 2448 61 
Q 2172 -91 1784 -91 
Q 1150 -91 751 415 
Q 353 922 353 1747 
Q 353 2572 751 3078 
Q 1150 3584 1784 3584 
Q 2172 3584 2448 3432 
Q 2725 3281 2906 2969 
z
M 947 1747 
Q 947 1113 1208 752 
Q 1469 391 1925 391 
Q 2381 391 2643 752 
Q 2906 1113 2906 1747 
Q 2906 2381 2643 2742 
Q 2381 3103 1925 3103 
Q 1469 3103 1208 2742 
Q 947 2381 947 1747 
z
" transform="scale(0.015625)"/>
      <path id="DejaVuSans-10" d="M 313 2009 
L 1997 2009 
L 1997 1497 
L 313 1497 
L 313 2009 
z
" transform="scale(0.015625)"/>
      <path id="DejaVuSans-53" d="M 1159 525 
L 1159 -1331 
L 581 -1331 
L 581 3500 
L 1159 3500 
L 1159 2969 
Q 1341 3281 1617 3432 
Q 1894 3584 2278 3584 
Q 2916 3584 3314 3078 
Q 3713 2572 3713 1747 
Q 3713 922 3314 415 
Q 2916 -91 2278 -91 
Q 1894 -91 1617 61 
Q 1341 213 1159 525 
z
M 3116 1747 
Q 3116 2381 2855 2742 
Q 2594 3103 2138 3103 
Q 1681 3103 1420 2742 
Q 1159 2381 1159 1747 
Q 1159 1113 1420 752 
Q 1681 391 2138 391 
Q 2594 391 2855 752 
Q 3116 1113 3116 1747 
z
" transform="scale(0.015625)"/>
      <path id="DejaVuSans-13af" d="M 3431 3500 
L 3431 0 
L 2853 0 
L 2853 3053 
L 1275 3053 
L 1275 0 
L 697 0 
L 697 3053 
L 147 3053 
L 147 3500 
L 697 3500 
L 697 3744 
Q 697 4316 967 4589 
Q 1238 4863 1797 4863 
L 2375 4863 
L 2375 4384 
L 1825 4384 
Q 1516 4384 1395 4259 
Q 1275 4134 1275 3809 
L 1275 3500 
L 3431 3500 
z
M 2853 4856 
L 3431 4856 
L 3431 4128 
L 2853 4128 
L 2853 4856 
z
" transform="scale(0.015625)"/>
      <path id="DejaVuSans-5b" d="M 3513 3500 
L 2247 1797 
L 3578 0 
L 2900 0 
L 1881 1375 
L 863 0 
L 184 0 
L 1544 1831 
L 300 3500 
L 978 3500 
L 1906 2253 
L 2834 3500 
L 3513 3500 
z
" transform="scale(0.015625)"/>
      <path id="DejaVuSans-79" d="M 684 2619 
L 1344 2619 
L 1344 1825 
L 684 1825 
L 684 2619 
z
" transform="scale(0.015625)"/>
      <path id="DejaVuSans-52" d="M 1959 3097 
Q 1497 3097 1228 2736 
Q 959 2375 959 1747 
Q 959 1119 1226 758 
Q 1494 397 1959 397 
Q 2419 397 2687 759 
Q 2956 1122 2956 1747 
Q 2956 2369 2687 2733 
Q 2419 3097 1959 3097 
z
M 1959 3584 
Q 2709 3584 3137 3096 
Q 3566 2609 3566 1747 
Q 3566 888 3137 398 
Q 2709 -91 1959 -91 
Q 1206 -91 779 398 
Q 353 888 353 1747 
Q 353 2609 779 3096 
Q 1206 3584 1959 3584 
z
" transform="scale(0.015625)"/>
      <path id="DejaVuSans-25" d="M 1259 2228 
L 1259 519 
L 2272 519 
Q 2781 519 3026 730 
Q 3272 941 3272 1375 
Q 3272 1813 3026 2020 
Q 2781 2228 2272 2228 
L 1259 2228 
z
M 1259 4147 
L 1259 2741 
L 2194 2741 
Q 2656 2741 2882 2914 
Q 3109 3088 3109 3444 
Q 3109 3797 2882 3972 
Q 2656 4147 2194 4147 
L 1259 4147 
z
M 628 4666 
L 2241 4666 
Q 2963 4666 3353 4366 
Q 3744 4066 3744 3513 
Q 3744 3084 3544 2831 
Q 3344 2578 2956 2516 
Q 3422 2416 3680 2098 
Q 3938 1781 3938 1306 
Q 3938 681 3513 340 
Q 3088 0 2303 0 
L 628 0 
L 628 4666 
z
" transform="scale(0.015625)"/>
     </defs>
     <use xlink:href="#DejaVuSans-30"/>
     <use xlink:href="#DejaVuSans-2f" transform="translate(86.28125 0)"/>
     <use xlink:href="#DejaVuSans-24" transform="translate(144.296875 0)"/>
     <use xlink:href="#DejaVuSans-3" transform="translate(212.703125 0)"/>
     <use xlink:href="#DejaVuSans-46" transform="translate(244.484375 0)"/>
     <use xlink:href="#DejaVuSans-44" transform="translate(299.46875 0)"/>
     <use xlink:href="#DejaVuSans-46" transform="translate(360.75 0)"/>
     <use xlink:href="#DejaVuSans-4b" transform="translate(415.734375 0)"/>
     <use xlink:href="#DejaVuSans-48" transform="translate(479.109375 0)"/>
     <use xlink:href="#DejaVuSans-47" transform="translate(540.640625 0)"/>
     <use xlink:href="#DejaVuSans-10" transform="translate(604.125 0)"/>
     <use xlink:href="#DejaVuSans-53" transform="translate(640.203125 0)"/>
     <use xlink:href="#DejaVuSans-55" transform="translate(703.6875 0)"/>
     <use xlink:href="#DejaVuSans-48" transform="translate(742.59375 0)"/>
     <use xlink:href="#DejaVuSans-13af" transform="translate(804.125 0)"/>
     <use xlink:href="#DejaVuSans-5b" transform="translate(867.109375 0)"/>
     <use xlink:href="#DejaVuSans-3" transform="translate(926.296875 0)"/>
     <use xlink:href="#DejaVuSans-4e" transform="translate(958.078125 0)"/>
     <use xlink:href="#DejaVuSans-48" transform="translate(1012.421875 0)"/>
     <use xlink:href="#DejaVuSans-55" transform="translate(1073.953125 0)"/>
     <use xlink:href="#DejaVuSans-51" transform="translate(1113.3125 0)"/>
     <use xlink:href="#DejaVuSans-48" transform="translate(1176.6875 0)"/>
     <use xlink:href="#DejaVuSans-4f" transform="translate(1238.21875 0)"/>
     <use xlink:href="#DejaVuSans-3" transform="translate(1266 0)"/>
     <use xlink:href="#DejaVuSans-53" transform="translate(1297.78125 0)"/>
     <use xlink:href="#DejaVuSans-4c" transform="translate(1361.265625 0)"/>
     <use xlink:href="#DejaVuSans-53" transform="translate(1389.046875 0)"/>
     <use xlink:href="#DejaVuSans-48" transform="translate(1452.53125 0)"/>
     <use xlink:href="#DejaVuSans-4f" transform="translate(1514.0625 0)"/>
     <use xlink:href="#DejaVuSans-4c" transform="translate(1541.84375 0)"/>
     <use xlink:href="#DejaVuSans-51" transform="translate(1569.625 0)"/>
     <use xlink:href="#DejaVuSans-48" transform="translate(1633 0)"/>
     <use xlink:href="#DejaVuSans-3" transform="translate(1694.53125 0)"/>
     <use xlink:href="#DejaVuSans-79" transform="translate(1726.3125 0)"/>
     <use xlink:href="#DejaVuSans-3" transform="translate(1758.09375 0)"/>
     <use xlink:href="#DejaVuSans-14" transform="translate(1789.875 0)"/>
     <use xlink:href="#DejaVuSans-30" transform="translate(1853.5 0)"/>
     <use xlink:href="#DejaVuSans-3" transform="translate(1939.78125 0)"/>
     <use xlink:href="#DejaVuSans-46" transform="translate(1971.5625 0)"/>
     <use xlink:href="#DejaVuSans-52" transform="translate(2026.546875 0)"/>
     <use xlink:href="#DejaVuSans-51" transform="translate(2087.734375 0)"/>
     <use xlink:href="#DejaVuSans-57" transform="translate(2151.109375 0)"/>
     <use xlink:href="#DejaVuSans-48" transform="translate(2190.3125 0)"/>
     <use xlink:href="#DejaVuSans-5b" transform="translate(2250.09375 0)"/>
     <use xlink:href="#DejaVuSans-57" transform="translate(2309.28125 0)"/>
     <use xlink:href="#DejaVuSans-3" transform="translate(2348.484375 0)"/>
     <use xlink:href="#DejaVuSans-79" transform="translate(2380.265625 0)"/>
     <use xlink:href="#DejaVuSans-3" transform="translate(2412.046875 0)"/>
     <use xlink:href="#DejaVuSans-14" transform="translate(2443.828125 0)"/>
     <use xlink:href="#DejaVuSans-15" transform="translate(2507.453125 0)"/>
     <use xlink:href="#DejaVuSans-1b" transform="translate(2571.078125 0)"/>
     <use xlink:href="#DejaVuSans-2e" transform="translate(2634.703125 0)"/>
     <use xlink:href="#DejaVuSans-3" transform="translate(2700.28125 0)"/>
     <use xlink:href="#DejaVuSans-56" transform="translate(2732.0625 0)"/>
     <use xlink:href="#DejaVuSans-53" transform="translate(2784.15625 0)"/>
     <use xlink:href="#DejaVuSans-4f" transform="translate(2847.640625 0)"/>
     <use xlink:href="#DejaVuSans-4c" transform="translate(2875.421875 0)"/>
     <use xlink:href="#DejaVuSans-57" transform="translate(2903.203125 0)"/>
     <use xlink:href="#DejaVuSans-3" transform="translate(2942.40625 0)"/>
     <use xlink:href="#DejaVuSans-79" transform="translate(2974.1875 0)"/>
     <use xlink:href="#DejaVuSans-3" transform="translate(3005.96875 0)"/>
     <use xlink:href="#DejaVuSans-52" transform="translate(3037.75 0)"/>
     <use xlink:href="#DejaVuSans-51" transform="translate(3098.9375 0)"/>
     <use xlink:href="#DejaVuSans-48" transform="translate(3162.3125 0)"/>
     <use xlink:href="#DejaVuSans-3" transform="translate(3223.84375 0)"/>
     <use xlink:href="#DejaVuSans-25" transform="translate(3255.625 0)"/>
     <use xlink:href="#DejaVuSans-16" transform="translate(3324.234375 0)"/>
     <use xlink:href="#DejaVuSans-13" transform="translate(3387.859375 0)"/>
     <use xlink:href="#DejaVuSans-13" transform="translate(3451.484375 0)"/>
    </g>
   </g>
  </g>
  <g id="axes_2">
   <g id="matplotlib.axis_3">
    <g id="ytick_9">
     <g id="line2d_22">
      <defs>
       <path id="md508f1acfe" d="M 0 0 
L 3.5 0 
" style="stroke: #000000; stroke-width: 0.8"/>
      </defs>
      <g>
       <use xlink:href="#md508f1acfe" x="638.243594" y="272.084186" style="stroke: #000000; stroke-width: 0.8"/>
      </g>
     </g>
     <g id="text_17">
      <!-- $\mathdefault{1.0}$ -->
      <g transform="translate(645.243594 275.883014) scale(0.1 -0.1)">
       <defs>
        <path id="DejaVuSans-11" d="M 684 794 
L 1344 794 
L 1344 0 
L 684 0 
L 684 794 
z
" transform="scale(0.015625)"/>
       </defs>
       <use xlink:href="#DejaVuSans-14" transform="translate(0 0.78125)"/>
       <use xlink:href="#DejaVuSans-11" transform="translate(63.623047 0.78125)"/>
       <use xlink:href="#DejaVuSans-13" transform="translate(95.410156 0.78125)"/>
      </g>
     </g>
    </g>
    <g id="ytick_10">
     <g id="line2d_23">
      <g>
       <use xlink:href="#md508f1acfe" x="638.243594" y="238.159201" style="stroke: #000000; stroke-width: 0.8"/>
      </g>
     </g>
     <g id="text_18">
      <!-- $\mathdefault{1.5}$ -->
      <g transform="translate(645.243594 241.958029) scale(0.1 -0.1)">
       <use xlink:href="#DejaVuSans-14" transform="translate(0 0.09375)"/>
       <use xlink:href="#DejaVuSans-11" transform="translate(63.623047 0.09375)"/>
       <use xlink:href="#DejaVuSans-18" transform="translate(95.410156 0.09375)"/>
      </g>
     </g>
    </g>
    <g id="ytick_11">
     <g id="line2d_24">
      <g>
       <use xlink:href="#md508f1acfe" x="638.243594" y="204.234216" style="stroke: #000000; stroke-width: 0.8"/>
      </g>
     </g>
     <g id="text_19">
      <!-- $\mathdefault{2.0}$ -->
      <g transform="translate(645.243594 208.033044) scale(0.1 -0.1)">
       <use xlink:href="#DejaVuSans-15" transform="translate(0 0.78125)"/>
       <use xlink:href="#DejaVuSans-11" transform="translate(63.623047 0.78125)"/>
       <use xlink:href="#DejaVuSans-13" transform="translate(95.410156 0.78125)"/>
      </g>
     </g>
    </g>
    <g id="ytick_12">
     <g id="line2d_25">
      <g>
       <use xlink:href="#md508f1acfe" x="638.243594" y="170.309231" style="stroke: #000000; stroke-width: 0.8"/>
      </g>
     </g>
     <g id="text_20">
      <!-- $\mathdefault{2.5}$ -->
      <g transform="translate(645.243594 174.108059) scale(0.1 -0.1)">
       <use xlink:href="#DejaVuSans-15" transform="translate(0 0.78125)"/>
       <use xlink:href="#DejaVuSans-11" transform="translate(63.623047 0.78125)"/>
       <use xlink:href="#DejaVuSans-18" transform="translate(95.410156 0.78125)"/>
      </g>
     </g>
    </g>
    <g id="ytick_13">
     <g id="line2d_26">
      <g>
       <use xlink:href="#md508f1acfe" x="638.243594" y="136.384246" style="stroke: #000000; stroke-width: 0.8"/>
      </g>
     </g>
     <g id="text_21">
      <!-- $\mathdefault{3.0}$ -->
      <g transform="translate(645.243594 140.183074) scale(0.1 -0.1)">
       <use xlink:href="#DejaVuSans-16" transform="translate(0 0.78125)"/>
       <use xlink:href="#DejaVuSans-11" transform="translate(63.623047 0.78125)"/>
       <use xlink:href="#DejaVuSans-13" transform="translate(95.410156 0.78125)"/>
      </g>
     </g>
    </g>
    <g id="ytick_14">
     <g id="line2d_27">
      <g>
       <use xlink:href="#md508f1acfe" x="638.243594" y="102.459261" style="stroke: #000000; stroke-width: 0.8"/>
      </g>
     </g>
     <g id="text_22">
      <!-- $\mathdefault{3.5}$ -->
      <g transform="translate(645.243594 106.258089) scale(0.1 -0.1)">
       <use xlink:href="#DejaVuSans-16" transform="translate(0 0.78125)"/>
       <use xlink:href="#DejaVuSans-11" transform="translate(63.623047 0.78125)"/>
       <use xlink:href="#DejaVuSans-18" transform="translate(95.410156 0.78125)"/>
      </g>
     </g>
    </g>
    <g id="ytick_15">
     <g id="line2d_28">
      <g>
       <use xlink:href="#md508f1acfe" x="638.243594" y="68.534276" style="stroke: #000000; stroke-width: 0.8"/>
      </g>
     </g>
     <g id="text_23">
      <!-- $\mathdefault{4.0}$ -->
      <g transform="translate(645.243594 72.333104) scale(0.1 -0.1)">
       <use xlink:href="#DejaVuSans-17" transform="translate(0 0.78125)"/>
       <use xlink:href="#DejaVuSans-11" transform="translate(63.623047 0.78125)"/>
       <use xlink:href="#DejaVuSans-13" transform="translate(95.410156 0.78125)"/>
      </g>
     </g>
    </g>
    <g id="ytick_16">
     <g id="line2d_29">
      <g>
       <use xlink:href="#md508f1acfe" x="638.243594" y="34.609291" style="stroke: #000000; stroke-width: 0.8"/>
      </g>
     </g>
     <g id="text_24">
      <!-- $\mathdefault{4.5}$ -->
      <g transform="translate(645.243594 38.408119) scale(0.1 -0.1)">
       <use xlink:href="#DejaVuSans-17" transform="translate(0 0.09375)"/>
       <use xlink:href="#DejaVuSans-11" transform="translate(63.623047 0.09375)"/>
       <use xlink:href="#DejaVuSans-18" transform="translate(95.410156 0.09375)"/>
      </g>
     </g>
    </g>
    <g id="text_25">
     <!-- Average achieved throughput (GFLOP/s) -->
     <g transform="translate(672.842031 257.927203) rotate(-90) scale(0.1 -0.1)">
      <defs>
       <path id="DejaVuSans-59" d="M 191 3500 
L 800 3500 
L 1894 563 
L 2988 3500 
L 3597 3500 
L 2284 0 
L 1503 0 
L 191 3500 
z
" transform="scale(0.015625)"/>
       <path id="DejaVuSans-4a" d="M 2906 1791 
Q 2906 2416 2648 2759 
Q 2391 3103 1925 3103 
Q 1463 3103 1205 2759 
Q 947 2416 947 1791 
Q 947 1169 1205 825 
Q 1463 481 1925 481 
Q 2391 481 2648 825 
Q 2906 1169 2906 1791 
z
M 3481 434 
Q 3481 -459 3084 -895 
Q 2688 -1331 1869 -1331 
Q 1566 -1331 1297 -1286 
Q 1028 -1241 775 -1147 
L 775 -588 
Q 1028 -725 1275 -790 
Q 1522 -856 1778 -856 
Q 2344 -856 2625 -561 
Q 2906 -266 2906 331 
L 2906 616 
Q 2728 306 2450 153 
Q 2172 0 1784 0 
Q 1141 0 747 490 
Q 353 981 353 1791 
Q 353 2603 747 3093 
Q 1141 3584 1784 3584 
Q 2172 3584 2450 3431 
Q 2728 3278 2906 2969 
L 2906 3500 
L 3481 3500 
L 3481 434 
z
" transform="scale(0.015625)"/>
       <path id="DejaVuSans-2a" d="M 3809 666 
L 3809 1919 
L 2778 1919 
L 2778 2438 
L 4434 2438 
L 4434 434 
Q 4069 175 3628 42 
Q 3188 -91 2688 -91 
Q 1594 -91 976 548 
Q 359 1188 359 2328 
Q 359 3472 976 4111 
Q 1594 4750 2688 4750 
Q 3144 4750 3555 4637 
Q 3966 4525 4313 4306 
L 4313 3634 
Q 3963 3931 3569 4081 
Q 3175 4231 2741 4231 
Q 1884 4231 1454 3753 
Q 1025 3275 1025 2328 
Q 1025 1384 1454 906 
Q 1884 428 2741 428 
Q 3075 428 3337 486 
Q 3600 544 3809 666 
z
" transform="scale(0.015625)"/>
       <path id="DejaVuSans-32" d="M 2522 4238 
Q 1834 4238 1429 3725 
Q 1025 3213 1025 2328 
Q 1025 1447 1429 934 
Q 1834 422 2522 422 
Q 3209 422 3611 934 
Q 4013 1447 4013 2328 
Q 4013 3213 3611 3725 
Q 3209 4238 2522 4238 
z
M 2522 4750 
Q 3503 4750 4090 4092 
Q 4678 3434 4678 2328 
Q 4678 1225 4090 567 
Q 3503 -91 2522 -91 
Q 1538 -91 948 565 
Q 359 1222 359 2328 
Q 359 3434 948 4092 
Q 1538 4750 2522 4750 
z
" transform="scale(0.015625)"/>
       <path id="DejaVuSans-33" d="M 1259 4147 
L 1259 2394 
L 2053 2394 
Q 2494 2394 2734 2622 
Q 2975 2850 2975 3272 
Q 2975 3691 2734 3919 
Q 2494 4147 2053 4147 
L 1259 4147 
z
M 628 4666 
L 2053 4666 
Q 2838 4666 3239 4311 
Q 3641 3956 3641 3272 
Q 3641 2581 3239 2228 
Q 2838 1875 2053 1875 
L 1259 1875 
L 1259 0 
L 628 0 
L 628 4666 
z
" transform="scale(0.015625)"/>
       <path id="DejaVuSans-12" d="M 1625 4666 
L 2156 4666 
L 531 -594 
L 0 -594 
L 1625 4666 
z
" transform="scale(0.015625)"/>
      </defs>
      <use xlink:href="#DejaVuSans-24"/>
      <use xlink:href="#DejaVuSans-59" transform="translate(62.546875 0)"/>
      <use xlink:href="#DejaVuSans-48" transform="translate(121.734375 0)"/>
      <use xlink:href="#DejaVuSans-55" transform="translate(183.265625 0)"/>
      <use xlink:href="#DejaVuSans-44" transform="translate(224.375 0)"/>
      <use xlink:href="#DejaVuSans-4a" transform="translate(285.65625 0)"/>
      <use xlink:href="#DejaVuSans-48" transform="translate(349.140625 0)"/>
      <use xlink:href="#DejaVuSans-3" transform="translate(410.671875 0)"/>
      <use xlink:href="#DejaVuSans-44" transform="translate(442.453125 0)"/>
      <use xlink:href="#DejaVuSans-46" transform="translate(503.734375 0)"/>
      <use xlink:href="#DejaVuSans-4b" transform="translate(558.71875 0)"/>
      <use xlink:href="#DejaVuSans-4c" transform="translate(622.09375 0)"/>
      <use xlink:href="#DejaVuSans-48" transform="translate(649.875 0)"/>
      <use xlink:href="#DejaVuSans-59" transform="translate(711.40625 0)"/>
      <use xlink:href="#DejaVuSans-48" transform="translate(770.59375 0)"/>
      <use xlink:href="#DejaVuSans-47" transform="translate(832.125 0)"/>
      <use xlink:href="#DejaVuSans-3" transform="translate(895.609375 0)"/>
      <use xlink:href="#DejaVuSans-57" transform="translate(927.390625 0)"/>
      <use xlink:href="#DejaVuSans-4b" transform="translate(966.59375 0)"/>
      <use xlink:href="#DejaVuSans-55" transform="translate(1029.96875 0)"/>
      <use xlink:href="#DejaVuSans-52" transform="translate(1068.875 0)"/>
      <use xlink:href="#DejaVuSans-58" transform="translate(1130.0625 0)"/>
      <use xlink:href="#DejaVuSans-4a" transform="translate(1193.4375 0)"/>
      <use xlink:href="#DejaVuSans-4b" transform="translate(1256.921875 0)"/>
      <use xlink:href="#DejaVuSans-53" transform="translate(1320.296875 0)"/>
      <use xlink:href="#DejaVuSans-58" transform="translate(1383.78125 0)"/>
      <use xlink:href="#DejaVuSans-57" transform="translate(1447.15625 0)"/>
      <use xlink:href="#DejaVuSans-3" transform="translate(1486.359375 0)"/>
      <use xlink:href="#DejaVuSans-b" transform="translate(1518.140625 0)"/>
      <use xlink:href="#DejaVuSans-2a" transform="translate(1557.15625 0)"/>
      <use xlink:href="#DejaVuSans-29" transform="translate(1634.640625 0)"/>
      <use xlink:href="#DejaVuSans-2f" transform="translate(1692.15625 0)"/>
      <use xlink:href="#DejaVuSans-32" transform="translate(1744.3125 0)"/>
      <use xlink:href="#DejaVuSans-33" transform="translate(1823.03125 0)"/>
      <use xlink:href="#DejaVuSans-12" transform="translate(1883.328125 0)"/>
      <use xlink:href="#DejaVuSans-56" transform="translate(1917.015625 0)"/>
      <use xlink:href="#DejaVuSans-c" transform="translate(1969.109375 0)"/>
     </g>
    </g>
    <g id="text_26">
     <!-- $\times\mathdefault{10^{6}}\mathdefault{}$ -->
     <g transform="translate(612.243594 19.318125) scale(0.1 -0.1)">
      <defs>
       <path id="DejaVuSans-99" d="M 4488 3438 
L 3059 2003 
L 4488 575 
L 4116 197 
L 2681 1631 
L 1247 197 
L 878 575 
L 2303 2003 
L 878 3438 
L 1247 3816 
L 2681 2381 
L 4116 3816 
L 4488 3438 
z
" transform="scale(0.015625)"/>
      </defs>
      <use xlink:href="#DejaVuSans-99" transform="translate(0 0.746875)"/>
      <use xlink:href="#DejaVuSans-14" transform="translate(83.789062 0.746875)"/>
      <use xlink:href="#DejaVuSans-13" transform="translate(147.412109 0.746875)"/>
      <use xlink:href="#DejaVuSans-19" transform="translate(211.992188 42.046875) scale(0.7)"/>
     </g>
    </g>
   </g>
   <g id="line2d_30">
    <path d="M 115.125216 280.432615 
L 228.945577 267.456553 
L 342.765937 251.416996 
L 456.586298 238.665073 
L 570.406659 233.402576 
" clip-path="url(#p2f72b72dca)" style="fill: none; stroke: #d62728; stroke-width: 2; stroke-linecap: square"/>
    <defs>
     <path id="mb5c9408045" d="M -0 3.181981 
L 3.181981 0 
L 0 -3.181981 
L -3.181981 -0 
z
" style="stroke: #d62728; stroke-linejoin: miter"/>
    </defs>
    <g clip-path="url(#p2f72b72dca)">
     <use xlink:href="#mb5c9408045" x="115.125216" y="280.432615" style="fill: #d62728; stroke: #d62728; stroke-linejoin: miter"/>
     <use xlink:href="#mb5c9408045" x="228.945577" y="267.456553" style="fill: #d62728; stroke: #d62728; stroke-linejoin: miter"/>
     <use xlink:href="#mb5c9408045" x="342.765937" y="251.416996" style="fill: #d62728; stroke: #d62728; stroke-linejoin: miter"/>
     <use xlink:href="#mb5c9408045" x="456.586298" y="238.665073" style="fill: #d62728; stroke: #d62728; stroke-linejoin: miter"/>
     <use xlink:href="#mb5c9408045" x="570.406659" y="233.402576" style="fill: #d62728; stroke: #d62728; stroke-linejoin: miter"/>
    </g>
   </g>
   <g id="line2d_31">
    <path d="M 47.288281 34.609291 
L 638.243594 34.609291 
" clip-path="url(#p2f72b72dca)" style="fill: none; stroke-dasharray: 2,3.3; stroke-dashoffset: 0; stroke: #9467bd; stroke-width: 2"/>
   </g>
   <g id="patch_32">
    <path d="M 47.288281 292.723781 
L 47.288281 22.318125 
" style="fill: none; stroke: #000000; stroke-width: 0.8; stroke-linejoin: miter; stroke-linecap: square"/>
   </g>
   <g id="patch_33">
    <path d="M 638.243594 292.723781 
L 638.243594 22.318125 
" style="fill: none; stroke: #000000; stroke-width: 0.8; stroke-linejoin: miter; stroke-linecap: square"/>
   </g>
   <g id="patch_34">
    <path d="M 47.288281 292.723781 
L 638.243594 292.723781 
" style="fill: none; stroke: #000000; stroke-width: 0.8; stroke-linejoin: miter; stroke-linecap: square"/>
   </g>
   <g id="patch_35">
    <path d="M 47.288281 22.318125 
L 638.243594 22.318125 
" style="fill: none; stroke: #000000; stroke-width: 0.8; stroke-linejoin: miter; stroke-linecap: square"/>
   </g>
  </g>
  <g id="legend_1">
   <g id="patch_36">
    <path d="M 158.213437 368.923 
L 178.213437 368.923 
L 178.213437 361.923 
L 158.213437 361.923 
z
" style="fill: #1f77b4"/>
   </g>
   <g id="text_27">
    <!-- FP8 cache restore -->
    <g transform="translate(186.213437 368.923) scale(0.1 -0.1)">
     <use xlink:href="#DejaVuSans-29"/>
     <use xlink:href="#DejaVuSans-33" transform="translate(57.515625 0)"/>
     <use xlink:href="#DejaVuSans-1b" transform="translate(117.8125 0)"/>
     <use xlink:href="#DejaVuSans-3" transform="translate(181.4375 0)"/>
     <use xlink:href="#DejaVuSans-46" transform="translate(213.21875 0)"/>
     <use xlink:href="#DejaVuSans-44" transform="translate(268.203125 0)"/>
     <use xlink:href="#DejaVuSans-46" transform="translate(329.484375 0)"/>
     <use xlink:href="#DejaVuSans-4b" transform="translate(384.46875 0)"/>
     <use xlink:href="#DejaVuSans-48" transform="translate(447.84375 0)"/>
     <use xlink:href="#DejaVuSans-3" transform="translate(509.375 0)"/>
     <use xlink:href="#DejaVuSans-55" transform="translate(541.15625 0)"/>
     <use xlink:href="#DejaVuSans-48" transform="translate(580.0625 0)"/>
     <use xlink:href="#DejaVuSans-56" transform="translate(641.59375 0)"/>
     <use xlink:href="#DejaVuSans-57" transform="translate(693.6875 0)"/>
     <use xlink:href="#DejaVuSans-52" transform="translate(732.890625 0)"/>
     <use xlink:href="#DejaVuSans-55" transform="translate(794.078125 0)"/>
     <use xlink:href="#DejaVuSans-48" transform="translate(832.984375 0)"/>
    </g>
   </g>
   <g id="patch_37">
    <path d="M 158.213437 383.923781 
L 178.213437 383.923781 
L 178.213437 376.923781 
L 158.213437 376.923781 
z
" style="fill: #ff7f0e"/>
   </g>
   <g id="text_28">
    <!-- Fresh attention -->
    <g transform="translate(186.213437 383.923781) scale(0.1 -0.1)">
     <use xlink:href="#DejaVuSans-29"/>
     <use xlink:href="#DejaVuSans-55" transform="translate(50.234375 0)"/>
     <use xlink:href="#DejaVuSans-48" transform="translate(89.140625 0)"/>
     <use xlink:href="#DejaVuSans-56" transform="translate(150.671875 0)"/>
     <use xlink:href="#DejaVuSans-4b" transform="translate(202.765625 0)"/>
     <use xlink:href="#DejaVuSans-3" transform="translate(266.140625 0)"/>
     <use xlink:href="#DejaVuSans-44" transform="translate(297.921875 0)"/>
     <use xlink:href="#DejaVuSans-57" transform="translate(359.203125 0)"/>
     <use xlink:href="#DejaVuSans-57" transform="translate(398.40625 0)"/>
     <use xlink:href="#DejaVuSans-48" transform="translate(437.609375 0)"/>
     <use xlink:href="#DejaVuSans-51" transform="translate(499.140625 0)"/>
     <use xlink:href="#DejaVuSans-57" transform="translate(562.515625 0)"/>
     <use xlink:href="#DejaVuSans-4c" transform="translate(601.71875 0)"/>
     <use xlink:href="#DejaVuSans-52" transform="translate(629.5 0)"/>
     <use xlink:href="#DejaVuSans-51" transform="translate(690.6875 0)"/>
    </g>
   </g>
   <g id="patch_38">
    <path d="M 295.665 368.923 
L 315.665 368.923 
L 315.665 361.923 
L 295.665 361.923 
z
" style="fill: #2ca02c"/>
   </g>
   <g id="text_29">
    <!-- Prefix KV expansion -->
    <g transform="translate(323.665 368.923) scale(0.1 -0.1)">
     <defs>
      <path id="DejaVuSans-39" d="M 1831 0 
L 50 4666 
L 709 4666 
L 2188 738 
L 3669 4666 
L 4325 4666 
L 2547 0 
L 1831 0 
z
" transform="scale(0.015625)"/>
     </defs>
     <use xlink:href="#DejaVuSans-33"/>
     <use xlink:href="#DejaVuSans-55" transform="translate(58.546875 0)"/>
     <use xlink:href="#DejaVuSans-48" transform="translate(97.453125 0)"/>
     <use xlink:href="#DejaVuSans-13af" transform="translate(158.984375 0)"/>
     <use xlink:href="#DejaVuSans-5b" transform="translate(221.96875 0)"/>
     <use xlink:href="#DejaVuSans-3" transform="translate(281.15625 0)"/>
     <use xlink:href="#DejaVuSans-2e" transform="translate(312.9375 0)"/>
     <use xlink:href="#DejaVuSans-39" transform="translate(378.515625 0)"/>
     <use xlink:href="#DejaVuSans-3" transform="translate(446.921875 0)"/>
     <use xlink:href="#DejaVuSans-48" transform="translate(478.703125 0)"/>
     <use xlink:href="#DejaVuSans-5b" transform="translate(538.484375 0)"/>
     <use xlink:href="#DejaVuSans-53" transform="translate(597.671875 0)"/>
     <use xlink:href="#DejaVuSans-44" transform="translate(661.15625 0)"/>
     <use xlink:href="#DejaVuSans-51" transform="translate(722.4375 0)"/>
     <use xlink:href="#DejaVuSans-56" transform="translate(785.8125 0)"/>
     <use xlink:href="#DejaVuSans-4c" transform="translate(837.90625 0)"/>
     <use xlink:href="#DejaVuSans-52" transform="translate(865.6875 0)"/>
     <use xlink:href="#DejaVuSans-51" transform="translate(926.875 0)"/>
    </g>
   </g>
   <g id="patch_39">
    <path d="M 295.665 383.923781 
L 315.665 383.923781 
L 315.665 376.923781 
L 295.665 376.923781 
z
" style="fill: #d62728"/>
   </g>
   <g id="text_30">
    <!-- Prefix attention -->
    <g transform="translate(323.665 383.923781) scale(0.1 -0.1)">
     <use xlink:href="#DejaVuSans-33"/>
     <use xlink:href="#DejaVuSans-55" transform="translate(58.546875 0)"/>
     <use xlink:href="#DejaVuSans-48" transform="translate(97.453125 0)"/>
     <use xlink:href="#DejaVuSans-13af" transform="translate(158.984375 0)"/>
     <use xlink:href="#DejaVuSans-5b" transform="translate(221.96875 0)"/>
     <use xlink:href="#DejaVuSans-3" transform="translate(281.15625 0)"/>
     <use xlink:href="#DejaVuSans-44" transform="translate(312.9375 0)"/>
     <use xlink:href="#DejaVuSans-57" transform="translate(374.21875 0)"/>
     <use xlink:href="#DejaVuSans-57" transform="translate(413.421875 0)"/>
     <use xlink:href="#DejaVuSans-48" transform="translate(452.625 0)"/>
     <use xlink:href="#DejaVuSans-51" transform="translate(514.15625 0)"/>
     <use xlink:href="#DejaVuSans-57" transform="translate(577.53125 0)"/>
     <use xlink:href="#DejaVuSans-4c" transform="translate(616.734375 0)"/>
     <use xlink:href="#DejaVuSans-52" transform="translate(644.515625 0)"/>
     <use xlink:href="#DejaVuSans-51" transform="translate(705.703125 0)"/>
    </g>
   </g>
   <g id="patch_40">
    <path d="M 442.69 368.923 
L 462.69 368.923 
L 462.69 361.923 
L 442.69 361.923 
z
" style="fill: #9467bd"/>
   </g>
   <g id="text_31">
    <!-- LSE merge -->
    <g transform="translate(470.69 368.923) scale(0.1 -0.1)">
     <defs>
      <path id="DejaVuSans-36" d="M 3425 4513 
L 3425 3897 
Q 3066 4069 2747 4153 
Q 2428 4238 2131 4238 
Q 1616 4238 1336 4038 
Q 1056 3838 1056 3469 
Q 1056 3159 1242 3001 
Q 1428 2844 1947 2747 
L 2328 2669 
Q 3034 2534 3370 2195 
Q 3706 1856 3706 1288 
Q 3706 609 3251 259 
Q 2797 -91 1919 -91 
Q 1588 -91 1214 -16 
Q 841 59 441 206 
L 441 856 
Q 825 641 1194 531 
Q 1563 422 1919 422 
Q 2459 422 2753 634 
Q 3047 847 3047 1241 
Q 3047 1584 2836 1778 
Q 2625 1972 2144 2069 
L 1759 2144 
Q 1053 2284 737 2584 
Q 422 2884 422 3419 
Q 422 4038 858 4394 
Q 1294 4750 2059 4750 
Q 2388 4750 2728 4690 
Q 3069 4631 3425 4513 
z
" transform="scale(0.015625)"/>
      <path id="DejaVuSans-28" d="M 628 4666 
L 3578 4666 
L 3578 4134 
L 1259 4134 
L 1259 2753 
L 3481 2753 
L 3481 2222 
L 1259 2222 
L 1259 531 
L 3634 531 
L 3634 0 
L 628 0 
L 628 4666 
z
" transform="scale(0.015625)"/>
     </defs>
     <use xlink:href="#DejaVuSans-2f"/>
     <use xlink:href="#DejaVuSans-36" transform="translate(55.71875 0)"/>
     <use xlink:href="#DejaVuSans-28" transform="translate(119.203125 0)"/>
     <use xlink:href="#DejaVuSans-3" transform="translate(182.390625 0)"/>
     <use xlink:href="#DejaVuSans-50" transform="translate(214.171875 0)"/>
     <use xlink:href="#DejaVuSans-48" transform="translate(311.578125 0)"/>
     <use xlink:href="#DejaVuSans-55" transform="translate(373.109375 0)"/>
     <use xlink:href="#DejaVuSans-4a" transform="translate(412.46875 0)"/>
     <use xlink:href="#DejaVuSans-48" transform="translate(475.953125 0)"/>
    </g>
   </g>
  </g>
 </g>
 <defs>
  <clipPath id="p2f72b72dca">
   <rect x="47.288281" y="22.318125" width="590.955312" height="270.405656"/>
  </clipPath>
 </defs>
</svg>
